<?xml version="1.0" encoding="UTF-8" standalone="no"?>
<!-- Created with Inkscape (http://www.inkscape.org/) -->

<svg
   width="6.3500004mm"
   height="6.3499999mm"
   viewBox="0 0 6.3500004 6.3499999"
   version="1.1"
   id="svg1"
   xmlns="http://www.w3.org/2000/svg"
   xmlns:svg="http://www.w3.org/2000/svg">
  <defs
     id="defs1" />
  <g
     id="layer2"
     transform="translate(-75.766668,-55.766672)">
    <ellipse
       style="fill:#000000;fill-opacity:1;stroke:#000000;stroke-width:0.362125;stroke-linejoin:round;stroke-dasharray:none;stroke-opacity:1"
       id="path5-7-9"
       cx="78.941666"
       cy="58.941669"
       rx="2.993938"
       ry="2.9939377" />
    <g
       id="g12"
       transform="matrix(0.11493204,0,0,0.10343344,44.059593,42.973633)">
      <path
         style="fill:none;fill-opacity:1;stroke:#ffffff;stroke-width:5.82083;stroke-linecap:round;stroke-linejoin:round;stroke-dasharray:none;stroke-opacity:1"
         d="m 284.99999,160 18.24341,12.71151"
         id="path8" />
      <path
         style="fill:none;fill-opacity:1;stroke:#ffffff;stroke-width:5.82083;stroke-linecap:round;stroke-linejoin:round;stroke-dasharray:none;stroke-opacity:1"
         d="m 289.99999,140 13.24341,32.71151"
         id="path9" />
      <path
         style="fill:none;fill-opacity:1;stroke:#ffffff;stroke-width:5.82083;stroke-linecap:round;stroke-linejoin:round;stroke-dasharray:none;stroke-opacity:1"
         d="m 300,133.14979 3.2434,39.56172"
         id="path10" />
      <path
         style="fill:none;fill-opacity:1;stroke:#ffffff;stroke-width:5.82083;stroke-linecap:round;stroke-linejoin:round;stroke-dasharray:none;stroke-opacity:1"
         d="M 311.46428,137.08959 309.99999,172 l 10,-26"
         id="path11" />
      <path
         style="fill:#ffffff;fill-opacity:1;stroke:none;stroke-width:5.82083;stroke-linecap:round;stroke-linejoin:round;stroke-dasharray:none;stroke-opacity:1"
         d="m 292.99999,159 c 2,-7 3.05505,-10.00611 12,-11 9,-1 13,11 13,11 0,0 1,5 -1,11 -2,6 -4,7 -12,7 -8,0 -10.8783,-7.43339 -10.8783,-7.43339 0,0 -3.1217,-3.56661 -1.1217,-10.56661 z"
         id="path12" />
    </g>
  </g>
</svg>
